<?xml version="1.0" encoding="UTF-8" standalone="no"?>
<!DOCTYPE svg PUBLIC "-//W3C//DTD SVG 1.1//EN"
 "http://www.w3.org/Graphics/SVG/1.1/DTD/svg11.dtd">
<!-- Generated by graphviz version 2.49.3 (20211027.1534)
 -->
<!-- Title: graph Pages: 1 -->
<svg width="1188pt" height="116pt"
 viewBox="0.00 0.00 1188.44 116.00" xmlns="http://www.w3.org/2000/svg" xmlns:xlink="http://www.w3.org/1999/xlink">
<g id="graph0" class="graph" transform="scale(1 1) rotate(0) translate(4 112)">
<title>graph</title>
<polygon fill="white" stroke="transparent" points="-4,4 -4,-112 1184.44,-112 1184.44,4 -4,4"/>
<!-- update&#45;wiki.yml -->
<g id="node1" class="node">
<title>update&#45;wiki.yml</title>
<ellipse fill="none" stroke="black" cx="196.6" cy="-90" rx="83.69" ry="18"/>
<text text-anchor="middle" x="196.6" y="-86.3" font-family="Times,serif" font-size="14.00">update&#45;wiki.yml</text>
</g>
<!-- wikiにpush -->
<g id="node2" class="node">
<title>wikiにpush</title>
<ellipse fill="none" stroke="black" cx="54.6" cy="-18" rx="54.69" ry="18"/>
<text text-anchor="middle" x="54.6" y="-14.3" font-family="Times,serif" font-size="14.00">wikiにpush</text>
</g>
<!-- update&#45;wiki.yml&#45;&gt;wikiにpush -->
<g id="edge1" class="edge">
<title>update&#45;wiki.yml&#45;&gt;wikiにpush</title>
<path fill="none" stroke="black" d="M164.73,-73.29C143.55,-62.85 115.62,-49.08 93.18,-38.02"/>
<polygon fill="black" stroke="black" points="94.45,-34.75 83.94,-33.46 91.36,-41.03 94.45,-34.75"/>
</g>
<!-- wikiリポジトリを取得 -->
<g id="node3" class="node">
<title>wikiリポジトリを取得</title>
<ellipse fill="none" stroke="black" cx="196.6" cy="-18" rx="69.59" ry="18"/>
<text text-anchor="middle" x="196.6" y="-14.3" font-family="Times,serif" font-size="14.00">wikiリポジトリを取得</text>
</g>
<!-- update&#45;wiki.yml&#45;&gt;wikiリポジトリを取得 -->
<g id="edge2" class="edge">
<title>update&#45;wiki.yml&#45;&gt;wikiリポジトリを取得</title>
<path fill="none" stroke="black" d="M196.6,-71.7C196.6,-63.98 196.6,-54.71 196.6,-46.11"/>
<polygon fill="black" stroke="black" points="200.1,-46.1 196.6,-36.1 193.1,-46.1 200.1,-46.1"/>
</g>
<!-- 更新 -->
<g id="node4" class="node">
<title>更新</title>
<ellipse fill="none" stroke="black" cx="311.6" cy="-18" rx="27" ry="18"/>
<text text-anchor="middle" x="311.6" y="-14.3" font-family="Times,serif" font-size="14.00">更新</text>
</g>
<!-- update&#45;wiki.yml&#45;&gt;更新 -->
<g id="edge3" class="edge">
<title>update&#45;wiki.yml&#45;&gt;更新</title>
<path fill="none" stroke="black" d="M223.27,-72.76C241.32,-61.78 265.12,-47.29 283.47,-36.12"/>
<polygon fill="black" stroke="black" points="285.53,-38.96 292.25,-30.78 281.89,-32.99 285.53,-38.96"/>
</g>
<!-- use&#45;docker.yml -->
<g id="node5" class="node">
<title>use&#45;docker.yml</title>
<ellipse fill="none" stroke="black" cx="987.6" cy="-90" rx="79.09" ry="18"/>
<text text-anchor="middle" x="987.6" y="-86.3" font-family="Times,serif" font-size="14.00">use&#45;docker.yml</text>
</g>
<!-- (.+)&quot; &#45;&#45;format dot &#45;o graph.dot &#45;r .github/workflows&#39; -->
<g id="node6" class="node">
<title>(.+)&quot; &#45;&#45;format dot &#45;o graph.dot &#45;r .github/workflows&#39;</title>
<ellipse fill="none" stroke="black" cx="625.6" cy="-18" rx="269.15" ry="18"/>
<text text-anchor="middle" x="625.6" y="-14.3" font-family="Times,serif" font-size="14.00">(.+)&quot; &#45;&#45;format dot &#45;o graph.dot &#45;r .github/workflows&#39;</text>
</g>
<!-- use&#45;docker.yml&#45;&gt;(.+)&quot; &#45;&#45;format dot &#45;o graph.dot &#45;r .github/workflows&#39; -->
<g id="edge4" class="edge">
<title>use&#45;docker.yml&#45;&gt;(.+)&quot; &#45;&#45;format dot &#45;o graph.dot &#45;r .github/workflows&#39;</title>
<path fill="none" stroke="black" d="M929.43,-77.75C872.78,-66.8 785.74,-49.97 719.31,-37.12"/>
<polygon fill="black" stroke="black" points="719.73,-33.64 709.25,-35.18 718.4,-40.51 719.73,-33.64"/>
</g>
<!-- push -->
<g id="node7" class="node">
<title>push</title>
<ellipse fill="none" stroke="black" cx="943.6" cy="-18" rx="30.59" ry="18"/>
<text text-anchor="middle" x="943.6" y="-14.3" font-family="Times,serif" font-size="14.00">push</text>
</g>
<!-- use&#45;docker.yml&#45;&gt;push -->
<g id="edge5" class="edge">
<title>use&#45;docker.yml&#45;&gt;push</title>
<path fill="none" stroke="black" d="M976.94,-72.05C971.62,-63.59 965.09,-53.19 959.21,-43.84"/>
<polygon fill="black" stroke="black" points="962.13,-41.91 953.85,-35.31 956.2,-45.64 962.13,-41.91"/>
</g>
<!-- rexdep -->
<g id="node8" class="node">
<title>rexdep</title>
<ellipse fill="none" stroke="black" cx="1032.6" cy="-18" rx="40.09" ry="18"/>
<text text-anchor="middle" x="1032.6" y="-14.3" font-family="Times,serif" font-size="14.00">rexdep</text>
</g>
<!-- use&#45;docker.yml&#45;&gt;rexdep -->
<g id="edge6" class="edge">
<title>use&#45;docker.yml&#45;&gt;rexdep</title>
<path fill="none" stroke="black" d="M998.49,-72.05C1003.85,-63.71 1010.42,-53.49 1016.36,-44.25"/>
<polygon fill="black" stroke="black" points="1019.34,-46.09 1021.8,-35.79 1013.45,-42.31 1019.34,-46.09"/>
</g>
<!-- リポジトリ取得 -->
<g id="node9" class="node">
<title>リポジトリ取得</title>
<ellipse fill="none" stroke="black" cx="1135.6" cy="-18" rx="44.69" ry="18"/>
<text text-anchor="middle" x="1135.6" y="-14.3" font-family="Times,serif" font-size="14.00">リポジトリ取得</text>
</g>
<!-- use&#45;docker.yml&#45;&gt;リポジトリ取得 -->
<g id="edge7" class="edge">
<title>use&#45;docker.yml&#45;&gt;リポジトリ取得</title>
<path fill="none" stroke="black" d="M1020.44,-73.46C1043.6,-62.51 1074.64,-47.83 1098.65,-36.47"/>
<polygon fill="black" stroke="black" points="1100.27,-39.58 1107.81,-32.14 1097.28,-33.25 1100.27,-39.58"/>
</g>
</g>
</svg>
