<?xml version="1.0" encoding="UTF-8" standalone="no"?>
<!DOCTYPE svg PUBLIC "-//W3C//DTD SVG 1.1//EN"
 "http://www.w3.org/Graphics/SVG/1.1/DTD/svg11.dtd">
<!-- Generated by graphviz version 2.49.3 (20211027.1534)
 -->
<!-- Title: graph Pages: 1 -->
<svg width="926pt" height="116pt"
 viewBox="0.00 0.00 926.44 116.00" xmlns="http://www.w3.org/2000/svg" xmlns:xlink="http://www.w3.org/1999/xlink">
<g id="graph0" class="graph" transform="scale(1 1) rotate(0) translate(4 112)">
<title>graph</title>
<polygon fill="white" stroke="transparent" points="-4,4 -4,-112 922.44,-112 922.44,4 -4,4"/>
<!-- update&#45;wiki.yml -->
<g id="node1" class="node">
<title>update&#45;wiki.yml</title>
<ellipse fill="none" stroke="black" cx="196.6" cy="-90" rx="83.69" ry="18"/>
<text text-anchor="middle" x="196.6" y="-86.3" font-family="Times,serif" font-size="14.00">update&#45;wiki.yml</text>
</g>
<!-- wikiにpush -->
<g id="node2" class="node">
<title>wikiにpush</title>
<ellipse fill="none" stroke="black" cx="54.6" cy="-18" rx="54.69" ry="18"/>
<text text-anchor="middle" x="54.6" y="-14.3" font-family="Times,serif" font-size="14.00">wikiにpush</text>
</g>
<!-- update&#45;wiki.yml&#45;&gt;wikiにpush -->
<g id="edge1" class="edge">
<title>update&#45;wiki.yml&#45;&gt;wikiにpush</title>
<path fill="none" stroke="black" d="M164.73,-73.29C143.55,-62.85 115.62,-49.08 93.18,-38.02"/>
<polygon fill="black" stroke="black" points="94.45,-34.75 83.94,-33.46 91.36,-41.03 94.45,-34.75"/>
</g>
<!-- wikiリポジトリを取得 -->
<g id="node3" class="node">
<title>wikiリポジトリを取得</title>
<ellipse fill="none" stroke="black" cx="196.6" cy="-18" rx="69.59" ry="18"/>
<text text-anchor="middle" x="196.6" y="-14.3" font-family="Times,serif" font-size="14.00">wikiリポジトリを取得</text>
</g>
<!-- update&#45;wiki.yml&#45;&gt;wikiリポジトリを取得 -->
<g id="edge2" class="edge">
<title>update&#45;wiki.yml&#45;&gt;wikiリポジトリを取得</title>
<path fill="none" stroke="black" d="M196.6,-71.7C196.6,-63.98 196.6,-54.71 196.6,-46.11"/>
<polygon fill="black" stroke="black" points="200.1,-46.1 196.6,-36.1 193.1,-46.1 200.1,-46.1"/>
</g>
<!-- 更新 -->
<g id="node4" class="node">
<title>更新</title>
<ellipse fill="none" stroke="black" cx="311.6" cy="-18" rx="27" ry="18"/>
<text text-anchor="middle" x="311.6" y="-14.3" font-family="Times,serif" font-size="14.00">更新</text>
</g>
<!-- update&#45;wiki.yml&#45;&gt;更新 -->
<g id="edge3" class="edge">
<title>update&#45;wiki.yml&#45;&gt;更新</title>
<path fill="none" stroke="black" d="M223.27,-72.76C241.32,-61.78 265.12,-47.29 283.47,-36.12"/>
<polygon fill="black" stroke="black" points="285.53,-38.96 292.25,-30.78 281.89,-32.99 285.53,-38.96"/>
</g>
<!-- use&#45;docker.yml -->
<g id="node5" class="node">
<title>use&#45;docker.yml</title>
<ellipse fill="none" stroke="black" cx="681.6" cy="-90" rx="79.09" ry="18"/>
<text text-anchor="middle" x="681.6" y="-86.3" font-family="Times,serif" font-size="14.00">use&#45;docker.yml</text>
</g>
<!-- create file list -->
<g id="node6" class="node">
<title>create file list</title>
<ellipse fill="none" stroke="black" cx="445.6" cy="-18" rx="89.08" ry="18"/>
<text text-anchor="middle" x="445.6" y="-14.3" font-family="Times,serif" font-size="14.00">create file list</text>
</g>
<!-- use&#45;docker.yml&#45;&gt;create file list -->
<g id="edge4" class="edge">
<title>use&#45;docker.yml&#45;&gt;create file list</title>
<path fill="none" stroke="black" d="M635.53,-75.34C597.74,-64.13 544.02,-48.19 503.35,-36.13"/>
<polygon fill="black" stroke="black" points="504.15,-32.72 493.57,-33.23 502.16,-39.43 504.15,-32.72"/>
</g>
<!-- output -->
<g id="node7" class="node">
<title>output</title>
<ellipse fill="none" stroke="black" cx="592.6" cy="-18" rx="40.09" ry="18"/>
<text text-anchor="middle" x="592.6" y="-14.3" font-family="Times,serif" font-size="14.00">output</text>
</g>
<!-- use&#45;docker.yml&#45;&gt;output -->
<g id="edge5" class="edge">
<title>use&#45;docker.yml&#45;&gt;output</title>
<path fill="none" stroke="black" d="M660.5,-72.41C648.36,-62.86 632.96,-50.75 619.9,-40.48"/>
<polygon fill="black" stroke="black" points="621.74,-37.47 611.72,-34.04 617.41,-42.97 621.74,-37.47"/>
</g>
<!-- push -->
<g id="node8" class="node">
<title>push</title>
<ellipse fill="none" stroke="black" cx="681.6" cy="-18" rx="30.59" ry="18"/>
<text text-anchor="middle" x="681.6" y="-14.3" font-family="Times,serif" font-size="14.00">push</text>
</g>
<!-- use&#45;docker.yml&#45;&gt;push -->
<g id="edge6" class="edge">
<title>use&#45;docker.yml&#45;&gt;push</title>
<path fill="none" stroke="black" d="M681.6,-71.7C681.6,-63.98 681.6,-54.71 681.6,-46.11"/>
<polygon fill="black" stroke="black" points="685.1,-46.1 681.6,-36.1 678.1,-46.1 685.1,-46.1"/>
</g>
<!-- rexdep -->
<g id="node9" class="node">
<title>rexdep</title>
<ellipse fill="none" stroke="black" cx="770.6" cy="-18" rx="40.09" ry="18"/>
<text text-anchor="middle" x="770.6" y="-14.3" font-family="Times,serif" font-size="14.00">rexdep</text>
</g>
<!-- use&#45;docker.yml&#45;&gt;rexdep -->
<g id="edge7" class="edge">
<title>use&#45;docker.yml&#45;&gt;rexdep</title>
<path fill="none" stroke="black" d="M702.69,-72.41C714.83,-62.86 730.23,-50.75 743.29,-40.48"/>
<polygon fill="black" stroke="black" points="745.78,-42.97 751.48,-34.04 741.45,-37.47 745.78,-42.97"/>
</g>
<!-- リポジトリ取得 -->
<g id="node10" class="node">
<title>リポジトリ取得</title>
<ellipse fill="none" stroke="black" cx="873.6" cy="-18" rx="44.69" ry="18"/>
<text text-anchor="middle" x="873.6" y="-14.3" font-family="Times,serif" font-size="14.00">リポジトリ取得</text>
</g>
<!-- use&#45;docker.yml&#45;&gt;リポジトリ取得 -->
<g id="edge8" class="edge">
<title>use&#45;docker.yml&#45;&gt;リポジトリ取得</title>
<path fill="none" stroke="black" d="M721.84,-74.33C754.13,-62.55 799.3,-46.09 831.95,-34.18"/>
<polygon fill="black" stroke="black" points="833.45,-37.36 841.65,-30.65 831.06,-30.78 833.45,-37.36"/>
</g>
</g>
</svg>
