<?xml version="1.0" encoding="UTF-8" standalone="no"?>
<!DOCTYPE svg PUBLIC "-//W3C//DTD SVG 1.1//EN"
 "http://www.w3.org/Graphics/SVG/1.1/DTD/svg11.dtd">
<!-- Generated by graphviz version 2.49.3 (20211027.1534)
 -->
<!-- Title: graph Pages: 1 -->
<svg width="1029pt" height="116pt"
 viewBox="0.00 0.00 1029.44 116.00" xmlns="http://www.w3.org/2000/svg" xmlns:xlink="http://www.w3.org/1999/xlink">
<g id="graph0" class="graph" transform="scale(1 1) rotate(0) translate(4 112)">
<title>graph</title>
<polygon fill="white" stroke="transparent" points="-4,4 -4,-112 1025.44,-112 1025.44,4 -4,4"/>
<!-- on&#45;pr.yml -->
<g id="node1" class="node">
<title>on&#45;pr.yml</title>
<ellipse fill="none" stroke="black" cx="54.6" cy="-90" rx="54.69" ry="18"/>
<text text-anchor="middle" x="54.6" y="-86.3" font-family="Times,serif" font-size="14.00">on&#45;pr.yml</text>
</g>
<!-- echo -->
<g id="node2" class="node">
<title>echo</title>
<ellipse fill="none" stroke="black" cx="54.6" cy="-18" rx="30.59" ry="18"/>
<text text-anchor="middle" x="54.6" y="-14.3" font-family="Times,serif" font-size="14.00">echo</text>
</g>
<!-- on&#45;pr.yml&#45;&gt;echo -->
<g id="edge1" class="edge">
<title>on&#45;pr.yml&#45;&gt;echo</title>
<path fill="none" stroke="black" d="M54.6,-71.7C54.6,-63.98 54.6,-54.71 54.6,-46.11"/>
<polygon fill="black" stroke="black" points="58.1,-46.1 54.6,-36.1 51.1,-46.1 58.1,-46.1"/>
</g>
<!-- update&#45;wiki.yml -->
<g id="node3" class="node">
<title>update&#45;wiki.yml</title>
<ellipse fill="none" stroke="black" cx="299.6" cy="-90" rx="83.69" ry="18"/>
<text text-anchor="middle" x="299.6" y="-86.3" font-family="Times,serif" font-size="14.00">update&#45;wiki.yml</text>
</g>
<!-- wikiにpush -->
<g id="node4" class="node">
<title>wikiにpush</title>
<ellipse fill="none" stroke="black" cx="157.6" cy="-18" rx="54.69" ry="18"/>
<text text-anchor="middle" x="157.6" y="-14.3" font-family="Times,serif" font-size="14.00">wikiにpush</text>
</g>
<!-- update&#45;wiki.yml&#45;&gt;wikiにpush -->
<g id="edge2" class="edge">
<title>update&#45;wiki.yml&#45;&gt;wikiにpush</title>
<path fill="none" stroke="black" d="M267.73,-73.29C246.55,-62.85 218.62,-49.08 196.18,-38.02"/>
<polygon fill="black" stroke="black" points="197.45,-34.75 186.94,-33.46 194.36,-41.03 197.45,-34.75"/>
</g>
<!-- wikiリポジトリを取得 -->
<g id="node5" class="node">
<title>wikiリポジトリを取得</title>
<ellipse fill="none" stroke="black" cx="299.6" cy="-18" rx="69.59" ry="18"/>
<text text-anchor="middle" x="299.6" y="-14.3" font-family="Times,serif" font-size="14.00">wikiリポジトリを取得</text>
</g>
<!-- update&#45;wiki.yml&#45;&gt;wikiリポジトリを取得 -->
<g id="edge3" class="edge">
<title>update&#45;wiki.yml&#45;&gt;wikiリポジトリを取得</title>
<path fill="none" stroke="black" d="M299.6,-71.7C299.6,-63.98 299.6,-54.71 299.6,-46.11"/>
<polygon fill="black" stroke="black" points="303.1,-46.1 299.6,-36.1 296.1,-46.1 303.1,-46.1"/>
</g>
<!-- 更新 -->
<g id="node6" class="node">
<title>更新</title>
<ellipse fill="none" stroke="black" cx="414.6" cy="-18" rx="27" ry="18"/>
<text text-anchor="middle" x="414.6" y="-14.3" font-family="Times,serif" font-size="14.00">更新</text>
</g>
<!-- update&#45;wiki.yml&#45;&gt;更新 -->
<g id="edge4" class="edge">
<title>update&#45;wiki.yml&#45;&gt;更新</title>
<path fill="none" stroke="black" d="M326.27,-72.76C344.32,-61.78 368.12,-47.29 386.47,-36.12"/>
<polygon fill="black" stroke="black" points="388.53,-38.96 395.25,-30.78 384.89,-32.99 388.53,-38.96"/>
</g>
<!-- use&#45;docker.yml -->
<g id="node7" class="node">
<title>use&#45;docker.yml</title>
<ellipse fill="none" stroke="black" cx="784.6" cy="-90" rx="79.09" ry="18"/>
<text text-anchor="middle" x="784.6" y="-86.3" font-family="Times,serif" font-size="14.00">use&#45;docker.yml</text>
</g>
<!-- create file list -->
<g id="node8" class="node">
<title>create file list</title>
<ellipse fill="none" stroke="black" cx="548.6" cy="-18" rx="89.08" ry="18"/>
<text text-anchor="middle" x="548.6" y="-14.3" font-family="Times,serif" font-size="14.00">create file list</text>
</g>
<!-- use&#45;docker.yml&#45;&gt;create file list -->
<g id="edge5" class="edge">
<title>use&#45;docker.yml&#45;&gt;create file list</title>
<path fill="none" stroke="black" d="M738.53,-75.34C700.74,-64.13 647.02,-48.19 606.35,-36.13"/>
<polygon fill="black" stroke="black" points="607.15,-32.72 596.57,-33.23 605.16,-39.43 607.15,-32.72"/>
</g>
<!-- output -->
<g id="node9" class="node">
<title>output</title>
<ellipse fill="none" stroke="black" cx="695.6" cy="-18" rx="40.09" ry="18"/>
<text text-anchor="middle" x="695.6" y="-14.3" font-family="Times,serif" font-size="14.00">output</text>
</g>
<!-- use&#45;docker.yml&#45;&gt;output -->
<g id="edge6" class="edge">
<title>use&#45;docker.yml&#45;&gt;output</title>
<path fill="none" stroke="black" d="M763.5,-72.41C751.36,-62.86 735.96,-50.75 722.9,-40.48"/>
<polygon fill="black" stroke="black" points="724.74,-37.47 714.72,-34.04 720.41,-42.97 724.74,-37.47"/>
</g>
<!-- push -->
<g id="node10" class="node">
<title>push</title>
<ellipse fill="none" stroke="black" cx="784.6" cy="-18" rx="30.59" ry="18"/>
<text text-anchor="middle" x="784.6" y="-14.3" font-family="Times,serif" font-size="14.00">push</text>
</g>
<!-- use&#45;docker.yml&#45;&gt;push -->
<g id="edge7" class="edge">
<title>use&#45;docker.yml&#45;&gt;push</title>
<path fill="none" stroke="black" d="M784.6,-71.7C784.6,-63.98 784.6,-54.71 784.6,-46.11"/>
<polygon fill="black" stroke="black" points="788.1,-46.1 784.6,-36.1 781.1,-46.1 788.1,-46.1"/>
</g>
<!-- rexdep -->
<g id="node11" class="node">
<title>rexdep</title>
<ellipse fill="none" stroke="black" cx="873.6" cy="-18" rx="40.09" ry="18"/>
<text text-anchor="middle" x="873.6" y="-14.3" font-family="Times,serif" font-size="14.00">rexdep</text>
</g>
<!-- use&#45;docker.yml&#45;&gt;rexdep -->
<g id="edge8" class="edge">
<title>use&#45;docker.yml&#45;&gt;rexdep</title>
<path fill="none" stroke="black" d="M805.69,-72.41C817.83,-62.86 833.23,-50.75 846.29,-40.48"/>
<polygon fill="black" stroke="black" points="848.78,-42.97 854.48,-34.04 844.45,-37.47 848.78,-42.97"/>
</g>
<!-- リポジトリ取得 -->
<g id="node12" class="node">
<title>リポジトリ取得</title>
<ellipse fill="none" stroke="black" cx="976.6" cy="-18" rx="44.69" ry="18"/>
<text text-anchor="middle" x="976.6" y="-14.3" font-family="Times,serif" font-size="14.00">リポジトリ取得</text>
</g>
<!-- use&#45;docker.yml&#45;&gt;リポジトリ取得 -->
<g id="edge9" class="edge">
<title>use&#45;docker.yml&#45;&gt;リポジトリ取得</title>
<path fill="none" stroke="black" d="M824.84,-74.33C857.13,-62.55 902.3,-46.09 934.95,-34.18"/>
<polygon fill="black" stroke="black" points="936.45,-37.36 944.65,-30.65 934.06,-30.78 936.45,-37.36"/>
</g>
</g>
</svg>
