<?xml version="1.0" encoding="UTF-8" standalone="no"?>
<!DOCTYPE svg PUBLIC "-//W3C//DTD SVG 1.1//EN"
 "http://www.w3.org/Graphics/SVG/1.1/DTD/svg11.dtd">
<!-- Generated by graphviz version 2.49.3 (20211027.1534)
 -->
<!-- Title: graph Pages: 1 -->
<svg width="450pt" height="116pt"
 viewBox="0.00 0.00 449.88 116.00" xmlns="http://www.w3.org/2000/svg" xmlns:xlink="http://www.w3.org/1999/xlink">
<g id="graph0" class="graph" transform="scale(1 1) rotate(0) translate(4 112)">
<title>graph</title>
<polygon fill="white" stroke="transparent" points="-4,4 -4,-112 445.88,-112 445.88,4 -4,4"/>
<!-- update&#45;wiki.yml -->
<g id="node1" class="node">
<title>update&#45;wiki.yml</title>
<ellipse fill="none" stroke="black" cx="103.34" cy="-90" rx="83.69" ry="18"/>
<text text-anchor="middle" x="103.34" y="-86.3" font-family="Times,serif" font-size="14.00">update&#45;wiki.yml</text>
</g>
<!-- actions/checkout@v2 -->
<g id="node2" class="node">
<title>actions/checkout@v2</title>
<ellipse fill="none" stroke="black" cx="103.34" cy="-18" rx="103.18" ry="18"/>
<text text-anchor="middle" x="103.34" y="-14.3" font-family="Times,serif" font-size="14.00">actions/checkout@v2</text>
</g>
<!-- update&#45;wiki.yml&#45;&gt;actions/checkout@v2 -->
<g id="edge1" class="edge">
<title>update&#45;wiki.yml&#45;&gt;actions/checkout@v2</title>
<path fill="none" stroke="black" d="M103.34,-71.7C103.34,-63.98 103.34,-54.71 103.34,-46.11"/>
<polygon fill="black" stroke="black" points="106.84,-46.1 103.34,-36.1 99.84,-46.1 106.84,-46.1"/>
</g>
<!-- use&#45;docker.yml -->
<g id="node3" class="node">
<title>use&#45;docker.yml</title>
<ellipse fill="none" stroke="black" cx="308.34" cy="-90" rx="79.09" ry="18"/>
<text text-anchor="middle" x="308.34" y="-86.3" font-family="Times,serif" font-size="14.00">use&#45;docker.yml</text>
</g>
<!-- use&#45;docker.yml&#45;&gt;actions/checkout@v2 -->
<g id="edge2" class="edge">
<title>use&#45;docker.yml&#45;&gt;actions/checkout@v2</title>
<path fill="none" stroke="black" d="M266.36,-74.67C235.02,-63.96 191.91,-49.24 157.89,-37.63"/>
<polygon fill="black" stroke="black" points="158.7,-34.2 148.11,-34.29 156.44,-40.83 158.7,-34.2"/>
</g>
<!-- docker://irof/rexdep -->
<g id="node4" class="node">
<title>docker://irof/rexdep</title>
<ellipse fill="none" stroke="black" cx="333.34" cy="-18" rx="108.58" ry="18"/>
<text text-anchor="middle" x="333.34" y="-14.3" font-family="Times,serif" font-size="14.00">docker://irof/rexdep</text>
</g>
<!-- use&#45;docker.yml&#45;&gt;docker://irof/rexdep -->
<g id="edge3" class="edge">
<title>use&#45;docker.yml&#45;&gt;docker://irof/rexdep</title>
<path fill="none" stroke="black" d="M314.52,-71.7C317.34,-63.81 320.73,-54.3 323.86,-45.55"/>
<polygon fill="black" stroke="black" points="327.16,-46.7 327.23,-36.1 320.57,-44.34 327.16,-46.7"/>
</g>
</g>
</svg>
